<svg xmlns="http://www.w3.org/2000/svg" width="62" height="59" viewBox="0 0 62 59"><g><g><path fill="#00a2ff" d="M61.305 30.484a5.03 5.03 0 0 1-.844 1.547c-.376.47-.798.844-1.266 1.125a7.77 7.77 0 0 1-1.547.703c.282.47.515.963.703 1.477.187.516.282 1.103.282 1.758a5.33 5.33 0 0 1-.282 1.687 7.835 7.835 0 0 1-.703 1.547 9.422 9.422 0 0 1-1.265 1.055c-.47.33-.939.586-1.406.773.28.47.514.984.703 1.547.186.563.28 1.125.28 1.688 0 .656-.094 1.243-.28 1.757a8.602 8.602 0 0 1-.703 1.477c-.376.47-.798.868-1.266 1.195-.47.33-.985.54-1.547.633.374.47.655.963.844 1.476.187.517.281 1.104.281 1.758 0 .657-.14 1.314-.422 1.97a5.314 5.314 0 0 1-1.125 1.687 7.376 7.376 0 0 1-1.828 1.125 5.3 5.3 0 0 1-2.11.421H29.243c-.657 0-1.406-.092-2.25-.28a17.149 17.149 0 0 1-2.672-.844 22.73 22.73 0 0 1-2.812-1.055 74.848 74.848 0 0 0-2.813-1.196 202.073 202.073 0 0 1-3.304-1.406c-1.08-.468-1.853-.703-2.32-.703H.272V25.984l1.125-.14h10.97c.843 0 1.616-.093 2.32-.282.703-.186 1.428-.562 2.18-1.125.843-.468 1.803-1.125 2.882-1.968a287.183 287.183 0 0 0 3.867-3.094c2.905-2.437 4.617-5.485 5.133-9.14.514-3.657.773-5.766.773-6.329 0-.562.141-1.1.422-1.617a3.077 3.077 0 0 1 1.125-1.195c.468-.374.96-.633 1.477-.774a5.589 5.589 0 0 1 1.476-.21c.75 0 1.499.094 2.25.28.75.19 1.453.611 2.11 1.266.655.657 1.17 1.525 1.547 2.602.373 1.079.562 2.509.562 4.289 0 1.595-.118 3.118-.351 4.57a36.258 36.258 0 0 1-.914 4.149 23.08 23.08 0 0 1-1.055 3.585 220.066 220.066 0 0 0-1.055 2.743h19.125c.844 0 1.569.118 2.18.351A6.298 6.298 0 0 1 60.18 25a4.64 4.64 0 0 1 1.054 1.617 5.68 5.68 0 0 1 .352 2.04c0 .656-.095 1.265-.281 1.827zm-3.797.914c.373-.14.655-.351.843-.633.282-.28.515-.584.704-.913.186-.328.28-.726.28-1.196 0-.75-.28-1.406-.843-1.969-.562-.562-1.314-.843-2.25-.843h-8.437c0 .094 0 .094 0 0H33.32l.844-1.688c2.624-6.469 3.938-11.672 3.938-15.61 0-3.093-.517-4.897-1.547-5.413-1.033-.515-1.877-.774-2.532-.774-.28 0-.703.14-1.265.422-.563.281-.844.657-.844 1.125 0 .563-.048 1.5-.14 2.813-.095 1.314-.376 2.812-.844 4.5-.47 1.687-1.15 3.423-2.04 5.203-.891 1.782-2.133 3.329-3.726 4.64a3149.735 3149.735 0 0 0-4.008 3.305c-1.079.892-2.087 1.617-3.023 2.18-.938.562-1.877.984-2.813 1.265a10.23 10.23 0 0 1-2.953.422H2.664v22.782H13.07c.655 0 1.523.21 2.602.632 1.076.422 2.412.963 4.008 1.617.749.376 1.569.774 2.46 1.196.89.422 1.758.773 2.602 1.054.936.282 1.78.541 2.531.774.75.235 1.407.352 1.97.352h18.562c.468 0 .89-.093 1.265-.282.374-.187.703-.422.985-.703.28-.187.492-.468.632-.844.141-.373.211-.749.211-1.125 0-.468-.07-.865-.21-1.195a2.93 2.93 0 0 0-.633-.914 2.748 2.748 0 0 0-.985-.633 3.587 3.587 0 0 0-1.265-.21h-.282v-2.391h3.235c.373 0 .749-.07 1.125-.211.373-.141.703-.352.984-.633.187-.281.374-.609.563-.984.186-.374.28-.75.28-1.125 0-.374-.094-.75-.28-1.125a9.734 9.734 0 0 0-.563-.985 9.715 9.715 0 0 0-.984-.562 2.515 2.515 0 0 0-1.125-.282h-.985v-2.39h3.516c.374 0 .75-.07 1.125-.211.374-.14.703-.352.984-.633a3.78 3.78 0 0 0 .704-.984c.186-.374.28-.75.28-1.125 0-.468-.094-.89-.28-1.266-.19-.374-.422-.655-.704-.844a3.814 3.814 0 0 0-.984-.703A2.515 2.515 0 0 0 53.289 34h-1.125v-2.39h4.078c.468 0 .89-.071 1.266-.212z"/></g></g></svg>